<?xml version="1.0" encoding="UTF-8"?>
<svg width="600" height="400" xmlns="http://www.w3.org/2000/svg">
  <rect width="600" height="400" fill="#f8f9fa"/>
  <text x="300" y="30" text-anchor="middle" font-family="Arial" font-size="18" font-weight="bold">Data Access Architecture</text>
  
  <!-- UI Layer -->
  <rect x="50" y="80" width="120" height="60" fill="#e3f2fd" stroke="#1976d2" stroke-width="2" rx="5"/>
  <text x="110" y="105" text-anchor="middle" font-family="Arial" font-size="12" font-weight="bold">UI Layer</text>
  <text x="110" y="120" text-anchor="middle" font-family="Arial" font-size="10">WebForms</text>
  
  <!-- Business Layer -->
  <rect x="240" y="80" width="120" height="60" fill="#e8f5e8" stroke="#388e3c" stroke-width="2" rx="5"/>
  <text x="300" y="105" text-anchor="middle" font-family="Arial" font-size="12" font-weight="bold">Business</text>
  <text x="300" y="120" text-anchor="middle" font-family="Arial" font-size="10">Logic</text>
  
  <!-- Data Layer -->
  <rect x="430" y="80" width="120" height="60" fill="#fff3e0" stroke="#f57c00" stroke-width="2" rx="5"/>
  <text x="490" y="105" text-anchor="middle" font-family="Arial" font-size="12" font-weight="bold">Data Access</text>
  <text x="490" y="120" text-anchor="middle" font-family="Arial" font-size="10">Repository</text>
  
  <!-- Database -->
  <rect x="240" y="200" width="120" height="60" fill="#f3e5f5" stroke="#7b1fa2" stroke-width="2" rx="5"/>
  <text x="300" y="225" text-anchor="middle" font-family="Arial" font-size="12" font-weight="bold">Database</text>
  <text x="300" y="240" text-anchor="middle" font-family="Arial" font-size="10">SQL Server</text>
  
  <!-- Arrows -->
  <defs>
    <marker id="arrow" markerWidth="10" markerHeight="7" refX="9" refY="3.5" orient="auto">
      <polygon points="0 0, 10 3.5, 0 7" fill="#666"/>
    </marker>
  </defs>
  
  <line x1="170" y1="110" x2="240" y2="110" stroke="#666" stroke-width="2" marker-end="url(#arrow)"/>
  <line x1="360" y1="110" x2="430" y2="110" stroke="#666" stroke-width="2" marker-end="url(#arrow)"/>
  <line x1="490" y1="140" x2="360" y2="200" stroke="#666" stroke-width="2" marker-end="url(#arrow)"/>
  
  <!-- Example -->
  <text x="50" y="320" font-family="Arial" font-size="12" font-weight="bold">Example Flow:</text>
  <text x="50" y="340" font-family="Arial" font-size="11">Page → Service → Repository → Database</text>
  <text x="50" y="360" font-family="Arial" font-size="11">User clicks button → Business logic → Data query → SQL Server</text>
</svg>